<svg width="200" height="120" viewBox="0 0 200 120" xmlns="http://www.w3.org/2000/svg" fill="none">
  <defs>
    <linearGradient id="g1" x1="0" x2="1">
      <stop offset="0" stop-color="#00c2a8"/>
      <stop offset="1" stop-color="#ff7a59"/>
    </linearGradient>
  </defs>
  <rect width="200" height="120" rx="12" fill="url(#g1)" opacity="0.06"/>
  <g transform="translate(18,24) scale(0.8)" fill="#fff">
    <path d="M67.1 6.7c-1.4-.6-3 .1-3.6 1.5L50.9 40.8a3 3 0 0 0 1.6 3.6l11 4.7c2.2.9 3.7 3.1 3.7 5.6v25.6a4.5 4.5 0 0 0 4.5 4.5h4.8a4.5 4.5 0 0 0 4.5-4.5V68a4.5 4.5 0 0 0-3.2-4.3l-24.7-8.6 40.8-14.7c2.4-.9 4-3.3 3.9-5.9l-.7-13.8c-.1-2.8-2.2-5-4.9-5.4L67.1 6.7z" opacity="0.95"/>
    <circle cx="8" cy="64" r="2.6" opacity="0.9"/>
    <circle cx="24" cy="72" r="1.8" opacity="0.9"/>
  </g>
</svg>